<svg xmlns="http://www.w3.org/2000/svg"
 xmlns:xlink="http://www.w3.org/1999/xlink"
 width="23px" height="18px"  viewBox="0 0 23 18">
<path fill-rule="evenodd"  fill="#6a0099"
 d="M3.500061,1.9806519 C3.500061,1.9806519 18.500061,1.9806519 18.500061,1.9806519 C19.880798,1.9806519 21.000061,3.1001587 21.000061,4.480591 C21.000061,4.480591 21.000061,14.480835 21.000061,14.480835 C21.000061,15.861389 19.880798,16.980896 18.500061,16.980896 C18.500061,16.980896 3.500061,16.980896 3.500061,16.980896 C2.1193237,16.980896 1.000061,15.861389 1.000061,14.480835 C1.000061,14.480835 1.000061,4.480591 1.000061,4.480591 C1.000061,3.1001587 2.1193237,1.9806519 3.500061,1.9806519 ZM15.740051,9.480591 C15.740051,9.480591 7.20343,14.409607 7.20343,14.409607 C7.20343,14.409607 7.20343,4.552002 7.20343,4.552002 C7.20343,4.552002 15.740051,9.480591 15.740051,9.480591 Z"/>
</svg>