<svg xmlns="http://www.w3.org/2000/svg"
 xmlns:xlink="http://www.w3.org/1999/xlink"
 width="25px" height="46px"  viewBox="0 0 25 46">
<path fill-rule="evenodd"  fill="#6e6d6b"
 d="M10.090759,19.615479 C10.560852,18.411438 9.957642,17.808212 9.420776,17.808212 C6.9418335,17.808212 3.725647,23.636463 2.5216064,23.636463 C2.0514526,23.636463 1.6499634,23.16639 1.6499634,22.764774 C1.6499634,21.558453 4.59729,18.746208 5.468872,17.87452 C8.148132,15.32872 11.632263,13.38615 15.517456,13.38615 C18.398438,13.38615 21.480957,15.127106 19.06836,21.627045 C19.06836,21.627045 14.244751,34.68974 14.244751,34.68974 C13.843262,35.694447 13.107056,37.370842 13.107056,38.44226 C13.107056,38.910053 13.37323,39.380127 13.909546,39.380127 C15.918945,39.380127 19.604736,33.685028 20.543152,33.685028 C20.877869,33.685028 21.345642,34.08651 21.345642,34.68974 C21.345642,36.63231 13.508545,44.93992 6.7419434,44.93992 C4.3293457,44.93992 2.654663,43.802185 2.654663,41.256386 C2.654663,38.040783 4.932434,32.5473 5.402588,31.407288 C5.402588,31.407288 10.090759,19.615479 10.090759,19.615479 ZM13.707947,6.417885 C13.707947,3.4707375 16.253662,1.0598392 19.201416,1.0598392 C21.882446,1.0598392 23.825073,2.8671074 23.825073,5.6149235 C23.825073,8.697641 21.279358,10.975384 18.265259,10.975384 C15.517456,10.975384 13.707947,9.165834 13.707947,6.417885 Z"/>
</svg>