<svg xmlns="http://www.w3.org/2000/svg"
 xmlns:xlink="http://www.w3.org/1999/xlink"
 width="43px" height="43px"  viewBox="0 0 43 43">
<path fill-rule="evenodd"  fill="#6e6d6b"
 d="M21.17041,1.9907551 C32.25708,1.9907551 41.009033,10.742798 41.009033,21.829094 C41.009033,32.91579 32.25708,41.66783 21.17041,41.66783 C10.084106,41.66783 1.3320312,32.91579 1.3320312,21.829094 C1.3320312,10.742798 10.084106,1.9907551 21.17041,1.9907551 ZM10.258667,20.954048 C10.375977,18.44503 11.075806,15.294258 12.24231,12.143215 C10.491821,11.384548 8.915894,10.568165 7.690918,9.692986 C5.007324,12.668457 3.3743896,16.57803 3.19812,20.954048 C3.19812,20.954048 10.258667,20.954048 10.258667,20.954048 ZM3.19812,22.704407 C3.3743896,27.080425 5.007324,30.989998 7.690918,33.96547 C8.915894,33.09029 10.491821,32.273907 12.24231,31.515373 C11.017212,28.364334 10.317261,25.155571 10.258667,22.704407 C10.258667,22.704407 3.19812,22.704407 3.19812,22.704407 ZM16.152588,4.499508 C13.410278,5.199381 10.958374,6.5999336 8.915894,8.466934 C9.966553,9.225464 11.309082,9.983997 12.826294,10.626019 C13.700684,8.409214 14.868774,6.249996 16.152588,4.499508 ZM8.915894,35.19152 C10.958374,37.05852 13.410278,38.459076 16.152588,39.10002 C14.810059,37.291813 13.700684,35.19152 12.88501,32.973778 C11.36792,33.615532 10.0251465,34.37406 8.915894,35.19152 ZM20.294556,14.360958 C18.310791,14.243507 16.035034,13.660412 13.818115,12.727249 C12.7677,15.469559 12.126465,18.211872 12.008911,20.954048 C12.008911,20.954048 20.294556,20.954048 20.294556,20.954048 C20.294556,20.954048 20.294556,14.360958 20.294556,14.360958 ZM12.008911,22.704407 C12.126465,25.33007 12.7677,28.131042 13.818115,30.93201 C16.035034,29.998043 18.310791,29.414948 20.294556,29.298302 C20.294556,29.298302 20.294556,22.704407 20.294556,22.704407 C20.294556,22.704407 12.008911,22.704407 12.008911,22.704407 ZM20.294556,3.7997684 C19.71045,3.7997684 19.128052,3.8577557 18.485352,3.9744015 C16.911133,6.1333504 15.45105,8.584518 14.343384,11.268036 C16.268433,11.968582 18.369507,12.435299 20.294556,12.551945 C20.294556,12.551945 20.294556,3.7997684 20.294556,3.7997684 ZM20.294556,31.10651 C18.428223,31.223156 16.385742,31.631886 14.4021,32.33176 C15.45105,34.957424 16.852417,37.525238 18.485352,39.684055 C19.128052,39.8007 19.71045,39.85855 20.294556,39.85855 C20.294556,39.85855 20.294556,31.10651 20.294556,31.10651 ZM22.0448,12.551945 C23.971558,12.435299 26.070923,11.968582 27.995972,11.268036 C26.888306,8.584518 25.429932,6.1333504 23.854004,3.9744015 C23.213013,3.8577557 22.629028,3.7997684 22.0448,3.7997684 C22.0448,3.7997684 22.0448,12.551945 22.0448,12.551945 ZM22.0448,20.954048 C22.0448,20.954048 30.330444,20.954048 30.330444,20.954048 C30.2146,18.211872 29.5719,15.469559 28.52124,12.727249 C26.304321,13.660412 24.028564,14.243507 22.0448,14.360958 C22.0448,14.360958 22.0448,20.954048 22.0448,20.954048 ZM22.0448,22.704407 C22.0448,22.704407 22.0448,29.298302 22.0448,29.298302 C24.028564,29.414948 26.304321,29.998043 28.52124,30.93201 C29.5719,28.131042 30.2146,25.33007 30.330444,22.704407 C30.330444,22.704407 22.0448,22.704407 22.0448,22.704407 ZM22.0448,39.85855 C22.629028,39.85855 23.213013,39.8007 23.854004,39.684055 C25.486938,37.525238 26.888306,34.957424 27.938965,32.33176 C25.955322,31.631886 23.912964,31.223156 22.0448,31.10651 C22.0448,31.10651 22.0448,39.85855 22.0448,39.85855 ZM33.423462,8.466934 C31.381104,6.5999336 28.930786,5.199381 26.188477,4.499508 C27.472412,6.249996 28.638916,8.409214 29.513062,10.626019 C31.030273,9.983997 32.372803,9.225464 33.423462,8.466934 ZM26.188477,39.10002 C28.930786,38.459076 31.381104,37.05852 33.423462,35.19152 C32.31421,34.37406 30.973145,33.615532 29.456055,32.973778 C28.638916,35.19152 27.529419,37.291813 26.188477,39.10002 ZM39.141235,20.954048 C38.966675,16.57803 37.33203,12.668457 34.64868,9.692986 C33.423462,10.568165 31.847534,11.384548 30.09729,12.143215 C31.26355,15.294258 31.965088,18.44503 32.08069,20.954048 C32.08069,20.954048 39.141235,20.954048 39.141235,20.954048 ZM32.08069,22.704407 C32.022095,25.155571 31.322266,28.364334 30.09729,31.515373 C31.847534,32.273907 33.423462,33.09029 34.64868,33.96547 C37.33203,30.989998 38.966675,27.080425 39.141235,22.704407 C39.141235,22.704407 32.08069,22.704407 32.08069,22.704407 Z"/>
</svg>