<svg xmlns="http://www.w3.org/2000/svg"
 xmlns:xlink="http://www.w3.org/1999/xlink"
 width="52px" height="37px"  viewBox="0 0 52 37">
<path fill-rule="evenodd"  fill="#6e6d6b"
 d="M49.87793,35.018578 C49.87793,35.018578 2.715332,35.018578 2.715332,35.018578 C2.1795654,35.018578 1.7460938,34.58461 1.7460938,34.04944 C1.7460938,34.04944 1.7460938,2.6081543 1.7460938,2.6081543 C1.7460938,2.072979 2.1795654,1.6390152 2.715332,1.6390152 C2.715332,1.6390152 49.87793,1.6390152 49.87793,1.6390152 C50.413574,1.6390152 50.847168,2.072979 50.847168,2.6081543 C50.847168,2.6081543 50.847168,34.04944 50.847168,34.04944 C50.847168,34.58461 50.413574,35.018578 49.87793,35.018578 ZM48.055054,33.08017 C48.055054,33.08017 33.787476,14.550568 33.787476,14.550568 C33.787476,14.550568 26.328735,19.54552 26.328735,19.54552 C26.328735,19.54552 18.751465,14.484528 18.751465,14.484528 C18.751465,14.484528 4.4560547,33.08017 4.4560547,33.08017 C4.4560547,33.08017 48.055054,33.08017 48.055054,33.08017 ZM3.6845703,30.90202 C3.6845703,30.90202 17.135376,13.405186 17.135376,13.405186 C17.135376,13.405186 3.6845703,4.421192 3.6845703,4.421192 C3.6845703,4.421192 3.6845703,30.90202 3.6845703,30.90202 ZM5.9108887,3.577427 C5.9108887,3.577427 26.298462,17.198112 26.298462,17.198112 C26.298462,17.198112 46.68274,3.577427 46.68274,3.577427 C46.68274,3.577427 5.9108887,3.577427 5.9108887,3.577427 ZM35.40222,13.469078 C35.40222,13.469078 48.90869,31.010212 48.90869,31.010212 C48.90869,31.010212 48.90869,4.424011 48.90869,4.424011 C48.90869,4.424011 35.40222,13.469078 35.40222,13.469078 Z"/>
</svg>