<svg xmlns="http://www.w3.org/2000/svg"
 xmlns:xlink="http://www.w3.org/1999/xlink"
 width="57px" height="49px"  viewBox="0 0 57 49">
<path fill-rule="evenodd"  fill="#6e6d6b"
 d="M1.2443237,18.809399 C1.2443237,18.809399 28.236877,3.2719116 28.236877,3.2719116 C28.236877,3.2719116 33.31775,6.1848297 33.31775,6.1848297 C33.31775,6.1848297 33.31775,1.8564587 33.31775,1.8564587 C33.31775,1.8564587 40.42633,1.8564587 40.42633,1.8564587 C40.42633,1.8564587 40.42633,10.27239 40.42633,10.27239 C40.42633,10.27239 55.23346,18.809399 55.23346,18.809399 C55.23346,18.809399 1.2443237,18.809399 1.2443237,18.809399 ZM38.341797,11.49321 C38.341797,11.49321 38.341797,3.9410458 38.341797,3.9410458 C38.341797,3.9410458 35.410522,3.9410458 35.410522,3.9410458 C35.410522,3.9410458 35.402283,3.9537983 35.402283,3.9537983 C35.402283,3.9537983 35.402283,9.803257 35.402283,9.803257 C35.402283,9.803257 28.212463,5.6962337 28.212463,5.6962337 C28.212463,5.6962337 9.061157,16.724945 9.061157,16.724945 C9.061157,16.724945 47.428772,16.724945 47.428772,16.724945 C47.428772,16.724945 38.341797,11.49321 38.341797,11.49321 ZM48.532227,47.629845 C48.532227,47.629845 29.8042,47.629845 29.8042,47.629845 C29.8042,47.629845 29.8042,36.703014 29.8042,36.703014 C29.8042,36.703014 29.791992,36.694424 29.791992,36.694424 C29.791992,36.694424 24.466919,36.694424 24.466919,36.694424 C24.466919,36.694424 24.45459,36.703014 24.45459,36.703014 C24.45459,36.703014 24.45459,47.629845 24.45459,47.629845 C24.45459,47.629845 7.689209,47.629845 7.689209,47.629845 C7.689209,47.629845 7.689209,20.441898 7.689209,20.441898 C7.689209,20.441898 48.532227,20.441898 48.532227,20.441898 C48.532227,20.441898 48.532227,47.629845 48.532227,47.629845 ZM46.44763,22.526485 C46.44763,22.526485 46.435425,22.526485 46.435425,22.526485 C46.435425,22.526485 9.773621,22.526485 9.773621,22.526485 C9.773621,22.526485 9.773621,45.52969 9.773621,45.52969 C9.773621,45.52969 9.773621,45.545395 9.773621,45.545395 C9.773621,45.545395 22.370117,45.545395 22.370117,45.545395 C22.370117,45.545395 22.370117,34.609974 22.370117,34.609974 C22.370117,34.609974 31.888794,34.609974 31.888794,34.609974 C31.888794,34.609974 31.888794,45.52969 31.888794,45.52969 C31.888794,45.52969 31.892883,45.545395 31.892883,45.545395 C31.892883,45.545395 46.44763,45.545395 46.44763,45.545395 C46.44763,45.545395 46.44763,22.526485 46.44763,22.526485 ZM42.26245,32.026722 C42.26245,32.026722 34.319397,32.026722 34.319397,32.026722 C34.319397,32.026722 34.319397,24.5355 34.319397,24.5355 C34.319397,24.5355 42.26245,24.5355 42.26245,24.5355 C42.26245,24.5355 42.26245,32.026722 42.26245,32.026722 ZM11.772644,24.5355 C11.772644,24.5355 19.719788,24.5355 19.719788,24.5355 C19.719788,24.5355 19.719788,32.026722 19.719788,32.026722 C19.719788,32.026722 11.772644,32.026722 11.772644,32.026722 C11.772644,32.026722 11.772644,24.5355 11.772644,24.5355 Z"/>
</svg>